<svg viewBox="0 0 182 89" xmlns="http://www.w3.org/2000/svg" fill-rule="evenodd" clip-rule="evenodd" stroke-linejoin="round" stroke-miterlimit="1.414"><path d="M121 18.6c0 3.5-2.8 6.3-6.2 6.3-3.4 0-6.2-2.8-6.2-6.3s2.8-6.3 6.2-6.3c3.5 0 6.2 2.8 6.2 6.3" fill="#76b043" fill-rule="nonzero"/><path d="M39.3 56.2c1.3 0 2.6-.2 3.7-.6 1.1-.4 2.1-1 3-1.8.8-.8 1.5-1.7 2-2.8.5-1.1.7-2.3.7-3.6v-.1c0-1.3-.2-2.5-.7-3.6-.5-1.1-1.1-2-2-2.8-.8-.8-1.8-1.4-3-1.8-1.1-.4-2.4-.6-3.7-.6-1.3 0-2.6.2-3.7.6-1.1.4-2.1 1-2.9 1.8-.8.8-1.5 1.7-2 2.8-.5 1.1-.7 2.3-.7 3.6v.1c0 2.7.9 4.8 2.6 6.4 1.8 1.6 4 2.4 6.7 2.4M38 79.9c-3.1 0-6.1-.3-9-1-2.9-.7-5.5-1.7-7.9-3l3.7-8.1c2 1.1 4 1.9 6 2.6 2 .6 4.3.9 6.9.9 3.7 0 6.5-.9 8.2-2.6 1.8-1.8 2.7-4.3 2.7-7.8V59c-1.6 1.9-3.4 3.5-5.3 4.5-1.9 1.1-4.3 1.6-7.2 1.6-2.2 0-4.4-.4-6.4-1.2-2-.8-3.9-1.9-5.4-3.5-1.6-1.5-2.8-3.4-3.7-5.6-.9-2.2-1.4-4.7-1.4-7.6v-.1c0-2.9.5-5.4 1.4-7.6 1-2.2 2.2-4.1 3.8-5.6 1.6-1.5 3.4-2.7 5.4-3.5 2-.8 4.2-1.2 6.3-1.2 2.9 0 5.4.5 7.3 1.6 1.9 1.1 3.6 2.4 5.1 4.1v-5h10.8v29.6c0 6.8-1.6 11.8-4.9 15.1-1.8 1.8-4.1 3.1-6.8 3.9-2.7 1-5.9 1.4-9.6 1.4m44.1-18.4c2.6 0 4.6-.6 6.2-1.8 1.5-1.2 2.3-2.8 2.3-4.8V53c-1-.4-2-.8-3.2-1-1.2-.3-2.4-.4-3.7-.4-2.3 0-4.2.5-5.5 1.4-1.3.9-2 2.2-2 3.9v.1c0 1.5.5 2.6 1.6 3.4 1.1.7 2.5 1.1 4.3 1.1M78.8 69c-1.8 0-3.5-.2-5.1-.7-1.6-.5-3-1.2-4.2-2.2-1.2-1-2.1-2.2-2.8-3.7-.7-1.4-1-3.1-1-5v-.1c0-2.1.4-3.9 1.1-5.4.8-1.5 1.8-2.8 3.2-3.8 1.4-1 3-1.7 4.8-2.2 1.9-.5 4-.7 6.2-.7 1.9 0 3.6.1 5.1.4 1.5.3 2.9.7 4.2 1.1v-.6c0-2.3-.7-4-2.1-5.2-1.4-1.2-3.4-1.8-6.1-1.8-2.1 0-3.9.2-5.5.5-1.6.4-3.3.9-5 1.5l-2.7-8.3c2.1-.9 4.3-1.6 6.6-2.2 2.3-.6 5-.9 8.3-.9 3 0 5.5.4 7.7 1.1 2.1.7 3.9 1.8 5.2 3.2 1.4 1.4 2.5 3.2 3.1 5.2.7 2.1 1 4.4 1 7v22.2H90.3v-4.1c-1.3 1.5-2.9 2.6-4.8 3.5-1.7.7-4 1.2-6.7 1.2" fill="#153235" fill-rule="nonzero"/><path fill="#153235" d="M109.9 30.1h10.8v38.2h-10.8z"/><path d="M129.5 30.1h10.8v5.5c.6-.8 1.3-1.6 2-2.3.7-.7 1.6-1.4 2.5-2 .9-.6 1.9-1 3-1.4 1.1-.3 2.3-.5 3.7-.5 4.1 0 7.3 1.3 9.6 3.8s3.4 6 3.4 10.4v24.7h-10.8V47c0-2.6-.6-4.5-1.7-5.8-1.1-1.3-2.8-2-4.9-2-2.1 0-3.7.7-5 2-1.2 1.3-1.8 3.2-1.8 5.8v21.3h-10.8V30.1z" fill="#153235" fill-rule="nonzero"/></svg>